<svg width="157" height="68" viewBox="0 0 157 68" fill="none" xmlns="http://www.w3.org/2000/svg">
<rect x="7" y="9" width="143" height="42" rx="6" fill="black"/>
<path d="M49.7 18.136C49.7 18.5653 49.632 18.956 49.496 19.308C49.36 19.66 49.168 19.9613 48.92 20.212C48.672 20.4627 48.3733 20.6573 48.024 20.796C47.6773 20.932 47.2933 21 46.872 21H44.732V15.268H46.872C47.2933 15.268 47.6773 15.3373 48.024 15.476C48.3733 15.612 48.672 15.8067 48.92 16.06C49.168 16.3107 49.36 16.612 49.496 16.964C49.632 17.316 49.7 17.7067 49.7 18.136ZM48.904 18.136C48.904 17.784 48.856 17.4693 48.76 17.192C48.664 16.9147 48.528 16.68 48.352 16.488C48.176 16.296 47.9627 16.1493 47.712 16.048C47.4613 15.9467 47.1813 15.896 46.872 15.896H45.508V20.372H46.872C47.1813 20.372 47.4613 20.3213 47.712 20.22C47.9627 20.1187 48.176 19.9733 48.352 19.784C48.528 19.592 48.664 19.3573 48.76 19.08C48.856 18.8027 48.904 18.488 48.904 18.136ZM50.9905 16.948V21H50.2785V16.948H50.9905ZM51.1425 15.676C51.1425 15.7453 51.1278 15.8107 51.0985 15.872C51.0718 15.9307 51.0345 15.984 50.9865 16.032C50.9411 16.0773 50.8865 16.1133 50.8225 16.14C50.7611 16.1667 50.6958 16.18 50.6265 16.18C50.5571 16.18 50.4918 16.1667 50.4305 16.14C50.3718 16.1133 50.3198 16.0773 50.2745 16.032C50.2291 15.984 50.1931 15.9307 50.1665 15.872C50.1398 15.8107 50.1265 15.7453 50.1265 15.676C50.1265 15.6067 50.1398 15.5413 50.1665 15.48C50.1931 15.416 50.2291 15.3613 50.2745 15.316C50.3198 15.268 50.3718 15.2307 50.4305 15.204C50.4918 15.1773 50.5571 15.164 50.6265 15.164C50.6958 15.164 50.7611 15.1773 50.8225 15.204C50.8865 15.2307 50.9411 15.268 50.9865 15.316C51.0345 15.3613 51.0718 15.416 51.0985 15.48C51.1278 15.5413 51.1425 15.6067 51.1425 15.676ZM54.187 17.616C54.155 17.6747 54.1057 17.704 54.039 17.704C53.999 17.704 53.9537 17.6893 53.903 17.66C53.8524 17.6307 53.7897 17.5987 53.715 17.564C53.643 17.5267 53.5564 17.4933 53.455 17.464C53.3537 17.432 53.2337 17.416 53.095 17.416C52.975 17.416 52.867 17.432 52.771 17.464C52.675 17.4933 52.5924 17.5347 52.523 17.588C52.4564 17.6413 52.4044 17.704 52.367 17.776C52.3324 17.8453 52.315 17.9213 52.315 18.004C52.315 18.108 52.3444 18.1947 52.403 18.264C52.4644 18.3333 52.5444 18.3933 52.643 18.444C52.7417 18.4947 52.8537 18.54 52.979 18.58C53.1044 18.6173 53.2324 18.6587 53.363 18.704C53.4964 18.7467 53.6257 18.7947 53.751 18.848C53.8764 18.9013 53.9884 18.968 54.087 19.048C54.1857 19.128 54.2644 19.2267 54.323 19.344C54.3844 19.4587 54.415 19.5973 54.415 19.76C54.415 19.9467 54.3817 20.12 54.315 20.28C54.2484 20.4373 54.1497 20.5747 54.019 20.692C53.8884 20.8067 53.7284 20.8973 53.539 20.964C53.3497 21.0307 53.131 21.064 52.883 21.064C52.6004 21.064 52.3444 21.0187 52.115 20.928C51.8857 20.8347 51.691 20.716 51.531 20.572L51.699 20.3C51.7204 20.2653 51.7457 20.2387 51.775 20.22C51.8044 20.2013 51.8417 20.192 51.887 20.192C51.935 20.192 51.9857 20.2107 52.039 20.248C52.0924 20.2853 52.1564 20.3267 52.231 20.372C52.3084 20.4173 52.4017 20.4587 52.511 20.496C52.6204 20.5333 52.7564 20.552 52.919 20.552C53.0577 20.552 53.179 20.5347 53.283 20.5C53.387 20.4627 53.4737 20.4133 53.543 20.352C53.6124 20.2907 53.663 20.22 53.695 20.14C53.7297 20.06 53.747 19.9747 53.747 19.884C53.747 19.772 53.7164 19.68 53.655 19.608C53.5964 19.5333 53.5177 19.4707 53.419 19.42C53.3204 19.3667 53.207 19.3213 53.079 19.284C52.9537 19.244 52.8244 19.2027 52.691 19.16C52.5604 19.1173 52.431 19.0693 52.303 19.016C52.1777 18.96 52.0657 18.8907 51.967 18.808C51.8684 18.7253 51.7884 18.624 51.727 18.504C51.6684 18.3813 51.639 18.2333 51.639 18.06C51.639 17.9053 51.671 17.7573 51.735 17.616C51.799 17.472 51.8924 17.3467 52.015 17.24C52.1377 17.1307 52.2884 17.044 52.467 16.98C52.6457 16.916 52.8497 16.884 53.079 16.884C53.3457 16.884 53.5844 16.9267 53.795 17.012C54.0084 17.0947 54.1924 17.2093 54.347 17.356L54.187 17.616ZM55.6706 20.024C55.8013 20.2 55.944 20.324 56.0986 20.396C56.2533 20.468 56.4266 20.504 56.6186 20.504C56.9973 20.504 57.288 20.3693 57.4906 20.1C57.6933 19.8307 57.7946 19.4467 57.7946 18.948C57.7946 18.684 57.7706 18.4573 57.7226 18.268C57.6773 18.0787 57.6106 17.924 57.5226 17.804C57.4346 17.6813 57.3266 17.592 57.1986 17.536C57.0706 17.48 56.9253 17.452 56.7626 17.452C56.5306 17.452 56.3266 17.5053 56.1506 17.612C55.9773 17.7187 55.8173 17.8693 55.6706 18.064V20.024ZM55.6346 17.576C55.8053 17.3653 56.0026 17.196 56.2266 17.068C56.4506 16.94 56.7066 16.876 56.9946 16.876C57.2293 16.876 57.4413 16.9213 57.6306 17.012C57.82 17.1 57.9813 17.232 58.1146 17.408C58.248 17.5813 58.3506 17.7973 58.4226 18.056C58.4946 18.3147 58.5306 18.612 58.5306 18.948C58.5306 19.2467 58.4906 19.5253 58.4106 19.784C58.3306 20.04 58.2146 20.2627 58.0626 20.452C57.9133 20.6387 57.7293 20.7867 57.5106 20.896C57.2946 21.0027 57.0506 21.056 56.7786 21.056C56.5306 21.056 56.3173 21.0147 56.1386 20.932C55.9626 20.8467 55.8066 20.7293 55.6706 20.58V22.372H54.9546V16.948H55.3826C55.484 16.948 55.5466 16.9973 55.5706 17.096L55.6346 17.576ZM60.8137 16.884C61.1097 16.884 61.3763 16.9333 61.6137 17.032C61.851 17.1307 62.0537 17.2707 62.2217 17.452C62.3897 17.6333 62.5177 17.8533 62.6057 18.112C62.6963 18.368 62.7417 18.6547 62.7417 18.972C62.7417 19.292 62.6963 19.58 62.6057 19.836C62.5177 20.092 62.3897 20.3107 62.2217 20.492C62.0537 20.6733 61.851 20.8133 61.6137 20.912C61.3763 21.008 61.1097 21.056 60.8137 21.056C60.515 21.056 60.2457 21.008 60.0057 20.912C59.7683 20.8133 59.5657 20.6733 59.3977 20.492C59.2297 20.3107 59.1003 20.092 59.0097 19.836C58.9217 19.58 58.8777 19.292 58.8777 18.972C58.8777 18.6547 58.9217 18.368 59.0097 18.112C59.1003 17.8533 59.2297 17.6333 59.3977 17.452C59.5657 17.2707 59.7683 17.1307 60.0057 17.032C60.2457 16.9333 60.515 16.884 60.8137 16.884ZM60.8137 20.5C61.2137 20.5 61.5123 20.3667 61.7097 20.1C61.907 19.8307 62.0057 19.456 62.0057 18.976C62.0057 18.4933 61.907 18.1173 61.7097 17.848C61.5123 17.5787 61.2137 17.444 60.8137 17.444C60.611 17.444 60.4337 17.4787 60.2817 17.548C60.1323 17.6173 60.007 17.7173 59.9057 17.848C59.807 17.9787 59.7323 18.14 59.6817 18.332C59.6337 18.5213 59.6097 18.736 59.6097 18.976C59.6097 19.456 59.7083 19.8307 59.9057 20.1C60.1057 20.3667 60.4083 20.5 60.8137 20.5ZM63.9834 17.536C64.0714 17.4373 64.1647 17.348 64.2634 17.268C64.3621 17.188 64.4661 17.12 64.5754 17.064C64.6874 17.0053 64.8047 16.9613 64.9274 16.932C65.0527 16.9 65.1874 16.884 65.3314 16.884C65.5527 16.884 65.7474 16.9213 65.9154 16.996C66.0861 17.068 66.2274 17.172 66.3394 17.308C66.4541 17.4413 66.5407 17.6027 66.5994 17.792C66.6581 17.9813 66.6874 18.1907 66.6874 18.42V21H65.9714V18.42C65.9714 18.1133 65.9007 17.876 65.7594 17.708C65.6207 17.5373 65.4087 17.452 65.1234 17.452C64.9127 17.452 64.7154 17.5027 64.5314 17.604C64.3501 17.7053 64.1821 17.8427 64.0274 18.016V21H63.3114V16.948H63.7394C63.8407 16.948 63.9034 16.9973 63.9274 17.096L63.9834 17.536ZM68.191 16.948V21H67.479V16.948H68.191ZM68.343 15.676C68.343 15.7453 68.3283 15.8107 68.299 15.872C68.2723 15.9307 68.235 15.984 68.187 16.032C68.1417 16.0773 68.087 16.1133 68.023 16.14C67.9617 16.1667 67.8963 16.18 67.827 16.18C67.7577 16.18 67.6923 16.1667 67.631 16.14C67.5723 16.1133 67.5203 16.0773 67.475 16.032C67.4297 15.984 67.3937 15.9307 67.367 15.872C67.3403 15.8107 67.327 15.7453 67.327 15.676C67.327 15.6067 67.3403 15.5413 67.367 15.48C67.3937 15.416 67.4297 15.3613 67.475 15.316C67.5203 15.268 67.5723 15.2307 67.631 15.204C67.6923 15.1773 67.7577 15.164 67.827 15.164C67.8963 15.164 67.9617 15.1773 68.023 15.204C68.087 15.2307 68.1417 15.268 68.187 15.316C68.235 15.3613 68.2723 15.416 68.299 15.48C68.3283 15.5413 68.343 15.6067 68.343 15.676ZM69.7435 20.024C69.8742 20.2 70.0169 20.324 70.1715 20.396C70.3289 20.468 70.5009 20.504 70.6875 20.504C71.0689 20.504 71.3609 20.3693 71.5635 20.1C71.7662 19.8307 71.8675 19.4293 71.8675 18.896C71.8675 18.4 71.7769 18.036 71.5955 17.804C71.4169 17.5693 71.1609 17.452 70.8275 17.452C70.5955 17.452 70.3929 17.5053 70.2195 17.612C70.0489 17.7187 69.8902 17.8693 69.7435 18.064V20.024ZM69.7435 17.532C69.9142 17.3347 70.1062 17.1773 70.3195 17.06C70.5355 16.9427 70.7835 16.884 71.0635 16.884C71.3009 16.884 71.5142 16.9293 71.7035 17.02C71.8955 17.1107 72.0582 17.2427 72.1915 17.416C72.3249 17.5867 72.4262 17.7947 72.4955 18.04C72.5675 18.2853 72.6035 18.5613 72.6035 18.868C72.6035 19.196 72.5635 19.4947 72.4835 19.764C72.4035 20.0333 72.2875 20.264 72.1355 20.456C71.9862 20.6453 71.8035 20.7933 71.5875 20.9C71.3715 21.004 71.1289 21.056 70.8595 21.056C70.5929 21.056 70.3675 21.0067 70.1835 20.908C70.0022 20.8067 69.8435 20.664 69.7075 20.48L69.6715 20.848C69.6502 20.9493 69.5889 21 69.4875 21H69.0275V15.108H69.7435V17.532ZM73.9068 15.108V21H73.1948V15.108H73.9068ZM77.4401 18.532C77.4401 18.3667 77.4161 18.216 77.3681 18.08C77.3227 17.9413 77.2547 17.8227 77.1641 17.724C77.0761 17.6227 76.9681 17.5453 76.8401 17.492C76.7121 17.436 76.5667 17.408 76.4041 17.408C76.0627 17.408 75.7921 17.508 75.5921 17.708C75.3947 17.9053 75.2721 18.18 75.2241 18.532H77.4401ZM78.0161 20.432C77.9281 20.5387 77.8227 20.632 77.7001 20.712C77.5774 20.7893 77.4454 20.8533 77.3041 20.904C77.1654 20.9547 77.0214 20.992 76.8721 21.016C76.7227 21.0427 76.5747 21.056 76.4281 21.056C76.1481 21.056 75.8894 21.0093 75.6521 20.916C75.4174 20.82 75.2134 20.6813 75.0401 20.5C74.8694 20.316 74.7361 20.0893 74.6401 19.82C74.5441 19.5507 74.4961 19.2413 74.4961 18.892C74.4961 18.6093 74.5387 18.3453 74.6241 18.1C74.7121 17.8547 74.8374 17.6427 75.0001 17.464C75.1627 17.2827 75.3614 17.1413 75.5961 17.04C75.8307 16.936 76.0947 16.884 76.3881 16.884C76.6307 16.884 76.8547 16.9253 77.0601 17.008C77.2681 17.088 77.4467 17.2053 77.5961 17.36C77.7481 17.512 77.8667 17.7013 77.9521 17.928C78.0374 18.152 78.0801 18.408 78.0801 18.696C78.0801 18.808 78.0681 18.8827 78.0441 18.92C78.0201 18.9573 77.9747 18.976 77.9081 18.976H75.2001C75.2081 19.232 75.2427 19.4547 75.3041 19.644C75.3681 19.8333 75.4561 19.992 75.5681 20.12C75.6801 20.2453 75.8134 20.34 75.9681 20.404C76.1227 20.4653 76.2961 20.496 76.4881 20.496C76.6667 20.496 76.8201 20.476 76.9481 20.436C77.0787 20.3933 77.1907 20.348 77.2841 20.3C77.3774 20.252 77.4547 20.208 77.5161 20.168C77.5801 20.1253 77.6347 20.104 77.6801 20.104C77.7387 20.104 77.7841 20.1267 77.8161 20.172L78.0161 20.432ZM83.0468 18.532C83.0468 18.3667 83.0228 18.216 82.9748 18.08C82.9295 17.9413 82.8615 17.8227 82.7708 17.724C82.6828 17.6227 82.5748 17.5453 82.4468 17.492C82.3188 17.436 82.1735 17.408 82.0108 17.408C81.6695 17.408 81.3988 17.508 81.1988 17.708C81.0015 17.9053 80.8788 18.18 80.8308 18.532H83.0468ZM83.6228 20.432C83.5348 20.5387 83.4295 20.632 83.3068 20.712C83.1842 20.7893 83.0522 20.8533 82.9108 20.904C82.7722 20.9547 82.6282 20.992 82.4788 21.016C82.3295 21.0427 82.1815 21.056 82.0348 21.056C81.7548 21.056 81.4962 21.0093 81.2588 20.916C81.0242 20.82 80.8202 20.6813 80.6468 20.5C80.4762 20.316 80.3428 20.0893 80.2468 19.82C80.1508 19.5507 80.1028 19.2413 80.1028 18.892C80.1028 18.6093 80.1455 18.3453 80.2308 18.1C80.3188 17.8547 80.4442 17.6427 80.6068 17.464C80.7695 17.2827 80.9682 17.1413 81.2028 17.04C81.4375 16.936 81.7015 16.884 81.9948 16.884C82.2375 16.884 82.4615 16.9253 82.6668 17.008C82.8748 17.088 83.0535 17.2053 83.2028 17.36C83.3548 17.512 83.4735 17.7013 83.5588 17.928C83.6442 18.152 83.6868 18.408 83.6868 18.696C83.6868 18.808 83.6748 18.8827 83.6508 18.92C83.6268 18.9573 83.5815 18.976 83.5148 18.976H80.8068C80.8148 19.232 80.8495 19.4547 80.9108 19.644C80.9748 19.8333 81.0628 19.992 81.1748 20.12C81.2868 20.2453 81.4202 20.34 81.5748 20.404C81.7295 20.4653 81.9028 20.496 82.0948 20.496C82.2735 20.496 82.4268 20.476 82.5548 20.436C82.6855 20.3933 82.7975 20.348 82.8908 20.3C82.9842 20.252 83.0615 20.208 83.1228 20.168C83.1868 20.1253 83.2415 20.104 83.2868 20.104C83.3455 20.104 83.3908 20.1267 83.4228 20.172L83.6228 20.432ZM84.9001 17.536C84.9881 17.4373 85.0814 17.348 85.1801 17.268C85.2787 17.188 85.3827 17.12 85.4921 17.064C85.6041 17.0053 85.7214 16.9613 85.8441 16.932C85.9694 16.9 86.1041 16.884 86.2481 16.884C86.4694 16.884 86.6641 16.9213 86.8321 16.996C87.0027 17.068 87.1441 17.172 87.2561 17.308C87.3707 17.4413 87.4574 17.6027 87.5161 17.792C87.5747 17.9813 87.6041 18.1907 87.6041 18.42V21H86.8881V18.42C86.8881 18.1133 86.8174 17.876 86.6761 17.708C86.5374 17.5373 86.3254 17.452 86.0401 17.452C85.8294 17.452 85.6321 17.5027 85.4481 17.604C85.2667 17.7053 85.0987 17.8427 84.9441 18.016V21H84.2281V16.948H84.6561C84.7574 16.948 84.8201 16.9973 84.8441 17.096L84.9001 17.536Z" fill="white"/>
<path d="M35.3563 30.7406C35.3438 28.6094 36.3094 27.0031 38.2594 25.8188C37.1687 24.2563 35.5187 23.3969 33.3438 23.2313C31.2844 23.0688 29.0312 24.4313 28.2062 24.4313C27.3344 24.4313 25.3406 23.2875 23.7719 23.2875C20.5344 23.3375 17.0938 25.8688 17.0938 31.0188C17.0938 32.5406 17.3719 34.1125 17.9281 35.7313C18.6719 37.8625 21.3531 43.0844 24.15 43C25.6125 42.9656 26.6469 41.9625 28.55 41.9625C30.3969 41.9625 31.3531 43 32.9844 43C35.8062 42.9594 38.2313 38.2125 38.9375 36.075C35.1531 34.2906 35.3563 30.85 35.3563 30.7406ZM32.0719 21.2094C33.6562 19.3281 33.5125 17.6156 33.4656 17C32.0656 17.0813 30.4469 17.9531 29.525 19.025C28.5094 20.175 27.9125 21.5969 28.0406 23.2C29.5531 23.3156 30.9344 22.5375 32.0719 21.2094Z" fill="white"/>
<path d="M53.4 33.632L51.992 29.784C51.9227 29.6133 51.8507 29.4107 51.776 29.176C51.7013 28.9413 51.6267 28.688 51.552 28.416C51.4827 28.688 51.4107 28.944 51.336 29.184C51.2613 29.4187 51.1893 29.624 51.12 29.8L49.72 33.632H53.4ZM57.2 38H55.536C55.3493 38 55.1973 37.9547 55.08 37.864C54.9627 37.768 54.8747 37.6507 54.816 37.512L53.952 35.152H49.16L48.296 37.512C48.2533 37.6347 48.1707 37.7467 48.048 37.848C47.9253 37.9493 47.7733 38 47.592 38H45.912L50.464 26.432H52.656L57.2 38ZM59.7124 35.872C59.9364 36.144 60.1791 36.336 60.4404 36.448C60.7071 36.56 60.9951 36.616 61.3044 36.616C61.6031 36.616 61.8724 36.56 62.1124 36.448C62.3524 36.336 62.5551 36.1653 62.7204 35.936C62.8911 35.7067 63.0218 35.4187 63.1124 35.072C63.2031 34.72 63.2484 34.3067 63.2484 33.832C63.2484 33.352 63.2084 32.9467 63.1284 32.616C63.0538 32.28 62.9444 32.008 62.8004 31.8C62.6564 31.592 62.4804 31.44 62.2724 31.344C62.0698 31.248 61.8378 31.2 61.5764 31.2C61.1658 31.2 60.8164 31.288 60.5284 31.464C60.2404 31.6347 59.9684 31.8773 59.7124 32.192V35.872ZM59.6084 30.912C59.9444 30.5333 60.3258 30.2267 60.7524 29.992C61.1791 29.7573 61.6804 29.64 62.2564 29.64C62.7044 29.64 63.1124 29.7333 63.4804 29.92C63.8538 30.1067 64.1738 30.3787 64.4404 30.736C64.7124 31.088 64.9204 31.5253 65.0644 32.048C65.2138 32.5653 65.2884 33.16 65.2884 33.832C65.2884 34.4453 65.2058 35.0133 65.0404 35.536C64.8751 36.0587 64.6378 36.512 64.3284 36.896C64.0244 37.28 63.6538 37.5813 63.2164 37.8C62.7844 38.0133 62.2991 38.12 61.7604 38.12C61.3018 38.12 60.9098 38.0507 60.5844 37.912C60.2591 37.768 59.9684 37.5707 59.7124 37.32V40.68H57.7364V29.792H58.9444C59.2004 29.792 59.3684 29.912 59.4484 30.152L59.6084 30.912ZM68.4728 35.872C68.6968 36.144 68.9395 36.336 69.2008 36.448C69.4675 36.56 69.7555 36.616 70.0648 36.616C70.3635 36.616 70.6328 36.56 70.8728 36.448C71.1128 36.336 71.3155 36.1653 71.4808 35.936C71.6515 35.7067 71.7822 35.4187 71.8728 35.072C71.9635 34.72 72.0088 34.3067 72.0088 33.832C72.0088 33.352 71.9688 32.9467 71.8888 32.616C71.8142 32.28 71.7048 32.008 71.5608 31.8C71.4168 31.592 71.2408 31.44 71.0328 31.344C70.8302 31.248 70.5982 31.2 70.3368 31.2C69.9262 31.2 69.5768 31.288 69.2888 31.464C69.0008 31.6347 68.7288 31.8773 68.4728 32.192V35.872ZM68.3688 30.912C68.7048 30.5333 69.0862 30.2267 69.5128 29.992C69.9395 29.7573 70.4408 29.64 71.0168 29.64C71.4648 29.64 71.8728 29.7333 72.2408 29.92C72.6142 30.1067 72.9342 30.3787 73.2008 30.736C73.4728 31.088 73.6808 31.5253 73.8248 32.048C73.9742 32.5653 74.0488 33.16 74.0488 33.832C74.0488 34.4453 73.9662 35.0133 73.8008 35.536C73.6355 36.0587 73.3982 36.512 73.0888 36.896C72.7848 37.28 72.4142 37.5813 71.9768 37.8C71.5448 38.0133 71.0595 38.12 70.5208 38.12C70.0622 38.12 69.6702 38.0507 69.3448 37.912C69.0195 37.768 68.7288 37.5707 68.4728 37.32V40.68H66.4968V29.792H67.7048C67.9608 29.792 68.1288 29.912 68.2088 30.152L68.3688 30.912ZM85.2865 28.536C85.2225 28.648 85.1532 28.7307 85.0785 28.784C85.0092 28.832 84.9212 28.856 84.8145 28.856C84.7025 28.856 84.5799 28.816 84.4465 28.736C84.3185 28.6507 84.1639 28.5573 83.9825 28.456C83.8012 28.3547 83.5879 28.264 83.3425 28.184C83.1025 28.0987 82.8172 28.056 82.4865 28.056C82.1879 28.056 81.9265 28.0933 81.7025 28.168C81.4785 28.2373 81.2892 28.336 81.1345 28.464C80.9852 28.592 80.8732 28.7467 80.7985 28.928C80.7239 29.104 80.6865 29.2987 80.6865 29.512C80.6865 29.784 80.7612 30.0107 80.9105 30.192C81.0652 30.3733 81.2679 30.528 81.5185 30.656C81.7692 30.784 82.0545 30.8987 82.3745 31C82.6945 31.1013 83.0225 31.2107 83.3585 31.328C83.6945 31.44 84.0225 31.5733 84.3425 31.728C84.6625 31.8773 84.9479 32.0693 85.1985 32.304C85.4492 32.5333 85.6492 32.816 85.7985 33.152C85.9532 33.488 86.0305 33.896 86.0305 34.376C86.0305 34.8987 85.9399 35.3893 85.7585 35.848C85.5825 36.3013 85.3212 36.6987 84.9745 37.04C84.6332 37.376 84.2145 37.6427 83.7185 37.84C83.2225 38.032 82.6545 38.128 82.0145 38.128C81.6465 38.128 81.2839 38.0907 80.9265 38.016C80.5692 37.9467 80.2252 37.8453 79.8945 37.712C79.5692 37.5787 79.2625 37.4187 78.9745 37.232C78.6865 37.0453 78.4305 36.8373 78.2065 36.608L78.8385 35.576C78.8919 35.5013 78.9612 35.44 79.0465 35.392C79.1319 35.3387 79.2225 35.312 79.3185 35.312C79.4519 35.312 79.5959 35.368 79.7505 35.48C79.9052 35.5867 80.0892 35.7067 80.3025 35.84C80.5159 35.9733 80.7639 36.096 81.0465 36.208C81.3345 36.3147 81.6785 36.368 82.0785 36.368C82.6919 36.368 83.1665 36.224 83.5025 35.936C83.8385 35.6427 84.0065 35.224 84.0065 34.68C84.0065 34.376 83.9292 34.128 83.7745 33.936C83.6252 33.744 83.4252 33.584 83.1745 33.456C82.9239 33.3227 82.6385 33.2107 82.3185 33.12C81.9985 33.0293 81.6732 32.9307 81.3425 32.824C81.0119 32.7173 80.6865 32.5893 80.3665 32.44C80.0465 32.2907 79.7612 32.096 79.5105 31.856C79.2599 31.616 79.0572 31.3173 78.9025 30.96C78.7532 30.5973 78.6785 30.152 78.6785 29.624C78.6785 29.2027 78.7612 28.792 78.9265 28.392C79.0972 27.992 79.3425 27.6373 79.6625 27.328C79.9825 27.0187 80.3772 26.7707 80.8465 26.584C81.3159 26.3973 81.8545 26.304 82.4625 26.304C83.1452 26.304 83.7745 26.4107 84.3505 26.624C84.9265 26.8373 85.4172 27.136 85.8225 27.52L85.2865 28.536ZM89.6391 38.128C88.9244 38.128 88.3751 37.928 87.9911 37.528C87.6124 37.1227 87.4231 36.5653 87.4231 35.856V31.272H86.5831C86.4764 31.272 86.3857 31.2373 86.3111 31.168C86.2364 31.0987 86.1991 30.9947 86.1991 30.856V30.072L87.5191 29.856L87.9351 27.616C87.9617 27.5093 88.0124 27.4267 88.0871 27.368C88.1617 27.3093 88.2577 27.28 88.3751 27.28H89.3991V29.864H91.5911V31.272H89.3991V35.72C89.3991 35.976 89.4604 36.176 89.5831 36.32C89.7111 36.464 89.8844 36.536 90.1031 36.536C90.2257 36.536 90.3271 36.5227 90.4071 36.496C90.4924 36.464 90.5644 36.432 90.6231 36.4C90.6871 36.368 90.7431 36.3387 90.7911 36.312C90.8391 36.28 90.8871 36.264 90.9351 36.264C90.9937 36.264 91.0417 36.28 91.0791 36.312C91.1164 36.3387 91.1564 36.3813 91.1991 36.44L91.7911 37.4C91.5031 37.64 91.1724 37.8213 90.7991 37.944C90.4257 38.0667 90.0391 38.128 89.6391 38.128ZM96.0924 29.664C96.7004 29.664 97.2524 29.7627 97.7484 29.96C98.2497 30.1573 98.6764 30.4373 99.0284 30.8C99.3857 31.1627 99.6604 31.6053 99.8524 32.128C100.044 32.6507 100.14 33.2347 100.14 33.88C100.14 34.5307 100.044 35.1173 99.8524 35.64C99.6604 36.1627 99.3857 36.608 99.0284 36.976C98.6764 37.344 98.2497 37.6267 97.7484 37.824C97.2524 38.0213 96.7004 38.12 96.0924 38.12C95.479 38.12 94.9217 38.0213 94.4204 37.824C93.919 37.6267 93.4897 37.344 93.1324 36.976C92.7804 36.608 92.5057 36.1627 92.3084 35.64C92.1164 35.1173 92.0204 34.5307 92.0204 33.88C92.0204 33.2347 92.1164 32.6507 92.3084 32.128C92.5057 31.6053 92.7804 31.1627 93.1324 30.8C93.4897 30.4373 93.919 30.1573 94.4204 29.96C94.9217 29.7627 95.479 29.664 96.0924 29.664ZM96.0924 36.6C96.775 36.6 97.279 36.3707 97.6044 35.912C97.935 35.4533 98.1004 34.7813 98.1004 33.896C98.1004 33.0107 97.935 32.336 97.6044 31.872C97.279 31.408 96.775 31.176 96.0924 31.176C95.399 31.176 94.8844 31.4107 94.5484 31.88C94.2177 32.344 94.0524 33.016 94.0524 33.896C94.0524 34.776 94.2177 35.448 94.5484 35.912C94.8844 36.3707 95.399 36.6 96.0924 36.6ZM103.179 31.216C103.435 30.7253 103.739 30.3413 104.091 30.064C104.443 29.7813 104.859 29.64 105.339 29.64C105.717 29.64 106.021 29.7227 106.251 29.888L106.123 31.368C106.096 31.464 106.056 31.5333 106.003 31.576C105.955 31.6133 105.888 31.632 105.803 31.632C105.723 31.632 105.603 31.6187 105.443 31.592C105.288 31.5653 105.136 31.552 104.987 31.552C104.768 31.552 104.573 31.584 104.403 31.648C104.232 31.712 104.077 31.8053 103.939 31.928C103.805 32.0453 103.685 32.1893 103.579 32.36C103.477 32.5307 103.381 32.7253 103.291 32.944V38H101.315V29.792H102.475C102.677 29.792 102.819 29.8293 102.899 29.904C102.979 29.9733 103.032 30.1013 103.059 30.288L103.179 31.216ZM112.004 32.952C112.004 32.696 111.966 32.456 111.892 32.232C111.822 32.0027 111.716 31.8027 111.572 31.632C111.428 31.4613 111.244 31.328 111.02 31.232C110.801 31.1307 110.545 31.08 110.252 31.08C109.681 31.08 109.23 31.2427 108.9 31.568C108.574 31.8933 108.366 32.3547 108.276 32.952H112.004ZM108.236 34.144C108.268 34.5653 108.342 34.9307 108.46 35.24C108.577 35.544 108.732 35.7973 108.924 36C109.116 36.1973 109.342 36.3467 109.604 36.448C109.87 36.544 110.164 36.592 110.484 36.592C110.804 36.592 111.078 36.5547 111.308 36.48C111.542 36.4053 111.745 36.3227 111.916 36.232C112.092 36.1413 112.244 36.0587 112.372 35.984C112.505 35.9093 112.633 35.872 112.756 35.872C112.921 35.872 113.044 35.9333 113.124 36.056L113.692 36.776C113.473 37.032 113.228 37.248 112.956 37.424C112.684 37.5947 112.398 37.7333 112.1 37.84C111.806 37.9413 111.505 38.0133 111.196 38.056C110.892 38.0987 110.596 38.12 110.308 38.12C109.737 38.12 109.206 38.0267 108.716 37.84C108.225 37.648 107.798 37.368 107.436 37C107.073 36.6267 106.788 36.168 106.58 35.624C106.372 35.0747 106.268 34.44 106.268 33.72C106.268 33.16 106.358 32.6347 106.54 32.144C106.721 31.648 106.98 31.2187 107.316 30.856C107.657 30.488 108.07 30.1973 108.556 29.984C109.046 29.7707 109.598 29.664 110.212 29.664C110.729 29.664 111.206 29.7467 111.644 29.912C112.081 30.0773 112.457 30.32 112.772 30.64C113.086 30.9547 113.332 31.344 113.508 31.808C113.689 32.2667 113.78 32.792 113.78 33.384C113.78 33.6827 113.748 33.8853 113.684 33.992C113.62 34.0933 113.497 34.144 113.316 34.144H108.236Z" fill="white"/>
</svg>
