<svg width="157" height="68" viewBox="0 0 157 68" fill="none" xmlns="http://www.w3.org/2000/svg">
<rect x="7" y="9" width="143" height="42" rx="6" fill="black"/>
<path d="M49.7 18.136C49.7 18.5653 49.632 18.956 49.496 19.308C49.36 19.66 49.168 19.9613 48.92 20.212C48.672 20.4627 48.3733 20.6573 48.024 20.796C47.6773 20.932 47.2933 21 46.872 21H44.732V15.268H46.872C47.2933 15.268 47.6773 15.3373 48.024 15.476C48.3733 15.612 48.672 15.8067 48.92 16.06C49.168 16.3107 49.36 16.612 49.496 16.964C49.632 17.316 49.7 17.7067 49.7 18.136ZM48.904 18.136C48.904 17.784 48.856 17.4693 48.76 17.192C48.664 16.9147 48.528 16.68 48.352 16.488C48.176 16.296 47.9627 16.1493 47.712 16.048C47.4613 15.9467 47.1813 15.896 46.872 15.896H45.508V20.372H46.872C47.1813 20.372 47.4613 20.3213 47.712 20.22C47.9627 20.1187 48.176 19.9733 48.352 19.784C48.528 19.592 48.664 19.3573 48.76 19.08C48.856 18.8027 48.904 18.488 48.904 18.136ZM50.9905 16.948V21H50.2785V16.948H50.9905ZM51.1425 15.676C51.1425 15.7453 51.1278 15.8107 51.0985 15.872C51.0718 15.9307 51.0345 15.984 50.9865 16.032C50.9411 16.0773 50.8865 16.1133 50.8225 16.14C50.7611 16.1667 50.6958 16.18 50.6265 16.18C50.5571 16.18 50.4918 16.1667 50.4305 16.14C50.3718 16.1133 50.3198 16.0773 50.2745 16.032C50.2291 15.984 50.1931 15.9307 50.1665 15.872C50.1398 15.8107 50.1265 15.7453 50.1265 15.676C50.1265 15.6067 50.1398 15.5413 50.1665 15.48C50.1931 15.416 50.2291 15.3613 50.2745 15.316C50.3198 15.268 50.3718 15.2307 50.4305 15.204C50.4918 15.1773 50.5571 15.164 50.6265 15.164C50.6958 15.164 50.7611 15.1773 50.8225 15.204C50.8865 15.2307 50.9411 15.268 50.9865 15.316C51.0345 15.3613 51.0718 15.416 51.0985 15.48C51.1278 15.5413 51.1425 15.6067 51.1425 15.676ZM54.187 17.616C54.155 17.6747 54.1057 17.704 54.039 17.704C53.999 17.704 53.9537 17.6893 53.903 17.66C53.8524 17.6307 53.7897 17.5987 53.715 17.564C53.643 17.5267 53.5564 17.4933 53.455 17.464C53.3537 17.432 53.2337 17.416 53.095 17.416C52.975 17.416 52.867 17.432 52.771 17.464C52.675 17.4933 52.5924 17.5347 52.523 17.588C52.4564 17.6413 52.4044 17.704 52.367 17.776C52.3324 17.8453 52.315 17.9213 52.315 18.004C52.315 18.108 52.3444 18.1947 52.403 18.264C52.4644 18.3333 52.5444 18.3933 52.643 18.444C52.7417 18.4947 52.8537 18.54 52.979 18.58C53.1044 18.6173 53.2324 18.6587 53.363 18.704C53.4964 18.7467 53.6257 18.7947 53.751 18.848C53.8764 18.9013 53.9884 18.968 54.087 19.048C54.1857 19.128 54.2644 19.2267 54.323 19.344C54.3844 19.4587 54.415 19.5973 54.415 19.76C54.415 19.9467 54.3817 20.12 54.315 20.28C54.2484 20.4373 54.1497 20.5747 54.019 20.692C53.8884 20.8067 53.7284 20.8973 53.539 20.964C53.3497 21.0307 53.131 21.064 52.883 21.064C52.6004 21.064 52.3444 21.0187 52.115 20.928C51.8857 20.8347 51.691 20.716 51.531 20.572L51.699 20.3C51.7204 20.2653 51.7457 20.2387 51.775 20.22C51.8044 20.2013 51.8417 20.192 51.887 20.192C51.935 20.192 51.9857 20.2107 52.039 20.248C52.0924 20.2853 52.1564 20.3267 52.231 20.372C52.3084 20.4173 52.4017 20.4587 52.511 20.496C52.6204 20.5333 52.7564 20.552 52.919 20.552C53.0577 20.552 53.179 20.5347 53.283 20.5C53.387 20.4627 53.4737 20.4133 53.543 20.352C53.6124 20.2907 53.663 20.22 53.695 20.14C53.7297 20.06 53.747 19.9747 53.747 19.884C53.747 19.772 53.7164 19.68 53.655 19.608C53.5964 19.5333 53.5177 19.4707 53.419 19.42C53.3204 19.3667 53.207 19.3213 53.079 19.284C52.9537 19.244 52.8244 19.2027 52.691 19.16C52.5604 19.1173 52.431 19.0693 52.303 19.016C52.1777 18.96 52.0657 18.8907 51.967 18.808C51.8684 18.7253 51.7884 18.624 51.727 18.504C51.6684 18.3813 51.639 18.2333 51.639 18.06C51.639 17.9053 51.671 17.7573 51.735 17.616C51.799 17.472 51.8924 17.3467 52.015 17.24C52.1377 17.1307 52.2884 17.044 52.467 16.98C52.6457 16.916 52.8497 16.884 53.079 16.884C53.3457 16.884 53.5844 16.9267 53.795 17.012C54.0084 17.0947 54.1924 17.2093 54.347 17.356L54.187 17.616ZM55.6706 20.024C55.8013 20.2 55.944 20.324 56.0986 20.396C56.2533 20.468 56.4266 20.504 56.6186 20.504C56.9973 20.504 57.288 20.3693 57.4906 20.1C57.6933 19.8307 57.7946 19.4467 57.7946 18.948C57.7946 18.684 57.7706 18.4573 57.7226 18.268C57.6773 18.0787 57.6106 17.924 57.5226 17.804C57.4346 17.6813 57.3266 17.592 57.1986 17.536C57.0706 17.48 56.9253 17.452 56.7626 17.452C56.5306 17.452 56.3266 17.5053 56.1506 17.612C55.9773 17.7187 55.8173 17.8693 55.6706 18.064V20.024ZM55.6346 17.576C55.8053 17.3653 56.0026 17.196 56.2266 17.068C56.4506 16.94 56.7066 16.876 56.9946 16.876C57.2293 16.876 57.4413 16.9213 57.6306 17.012C57.82 17.1 57.9813 17.232 58.1146 17.408C58.248 17.5813 58.3506 17.7973 58.4226 18.056C58.4946 18.3147 58.5306 18.612 58.5306 18.948C58.5306 19.2467 58.4906 19.5253 58.4106 19.784C58.3306 20.04 58.2146 20.2627 58.0626 20.452C57.9133 20.6387 57.7293 20.7867 57.5106 20.896C57.2946 21.0027 57.0506 21.056 56.7786 21.056C56.5306 21.056 56.3173 21.0147 56.1386 20.932C55.9626 20.8467 55.8066 20.7293 55.6706 20.58V22.372H54.9546V16.948H55.3826C55.484 16.948 55.5466 16.9973 55.5706 17.096L55.6346 17.576ZM60.8137 16.884C61.1097 16.884 61.3763 16.9333 61.6137 17.032C61.851 17.1307 62.0537 17.2707 62.2217 17.452C62.3897 17.6333 62.5177 17.8533 62.6057 18.112C62.6963 18.368 62.7417 18.6547 62.7417 18.972C62.7417 19.292 62.6963 19.58 62.6057 19.836C62.5177 20.092 62.3897 20.3107 62.2217 20.492C62.0537 20.6733 61.851 20.8133 61.6137 20.912C61.3763 21.008 61.1097 21.056 60.8137 21.056C60.515 21.056 60.2457 21.008 60.0057 20.912C59.7683 20.8133 59.5657 20.6733 59.3977 20.492C59.2297 20.3107 59.1003 20.092 59.0097 19.836C58.9217 19.58 58.8777 19.292 58.8777 18.972C58.8777 18.6547 58.9217 18.368 59.0097 18.112C59.1003 17.8533 59.2297 17.6333 59.3977 17.452C59.5657 17.2707 59.7683 17.1307 60.0057 17.032C60.2457 16.9333 60.515 16.884 60.8137 16.884ZM60.8137 20.5C61.2137 20.5 61.5123 20.3667 61.7097 20.1C61.907 19.8307 62.0057 19.456 62.0057 18.976C62.0057 18.4933 61.907 18.1173 61.7097 17.848C61.5123 17.5787 61.2137 17.444 60.8137 17.444C60.611 17.444 60.4337 17.4787 60.2817 17.548C60.1323 17.6173 60.007 17.7173 59.9057 17.848C59.807 17.9787 59.7323 18.14 59.6817 18.332C59.6337 18.5213 59.6097 18.736 59.6097 18.976C59.6097 19.456 59.7083 19.8307 59.9057 20.1C60.1057 20.3667 60.4083 20.5 60.8137 20.5ZM63.9834 17.536C64.0714 17.4373 64.1647 17.348 64.2634 17.268C64.3621 17.188 64.4661 17.12 64.5754 17.064C64.6874 17.0053 64.8047 16.9613 64.9274 16.932C65.0527 16.9 65.1874 16.884 65.3314 16.884C65.5527 16.884 65.7474 16.9213 65.9154 16.996C66.0861 17.068 66.2274 17.172 66.3394 17.308C66.4541 17.4413 66.5407 17.6027 66.5994 17.792C66.6581 17.9813 66.6874 18.1907 66.6874 18.42V21H65.9714V18.42C65.9714 18.1133 65.9007 17.876 65.7594 17.708C65.6207 17.5373 65.4087 17.452 65.1234 17.452C64.9127 17.452 64.7154 17.5027 64.5314 17.604C64.3501 17.7053 64.1821 17.8427 64.0274 18.016V21H63.3114V16.948H63.7394C63.8407 16.948 63.9034 16.9973 63.9274 17.096L63.9834 17.536ZM68.191 16.948V21H67.479V16.948H68.191ZM68.343 15.676C68.343 15.7453 68.3283 15.8107 68.299 15.872C68.2723 15.9307 68.235 15.984 68.187 16.032C68.1417 16.0773 68.087 16.1133 68.023 16.14C67.9617 16.1667 67.8963 16.18 67.827 16.18C67.7577 16.18 67.6923 16.1667 67.631 16.14C67.5723 16.1133 67.5203 16.0773 67.475 16.032C67.4297 15.984 67.3937 15.9307 67.367 15.872C67.3403 15.8107 67.327 15.7453 67.327 15.676C67.327 15.6067 67.3403 15.5413 67.367 15.48C67.3937 15.416 67.4297 15.3613 67.475 15.316C67.5203 15.268 67.5723 15.2307 67.631 15.204C67.6923 15.1773 67.7577 15.164 67.827 15.164C67.8963 15.164 67.9617 15.1773 68.023 15.204C68.087 15.2307 68.1417 15.268 68.187 15.316C68.235 15.3613 68.2723 15.416 68.299 15.48C68.3283 15.5413 68.343 15.6067 68.343 15.676ZM69.7435 20.024C69.8742 20.2 70.0169 20.324 70.1715 20.396C70.3289 20.468 70.5009 20.504 70.6875 20.504C71.0689 20.504 71.3609 20.3693 71.5635 20.1C71.7662 19.8307 71.8675 19.4293 71.8675 18.896C71.8675 18.4 71.7769 18.036 71.5955 17.804C71.4169 17.5693 71.1609 17.452 70.8275 17.452C70.5955 17.452 70.3929 17.5053 70.2195 17.612C70.0489 17.7187 69.8902 17.8693 69.7435 18.064V20.024ZM69.7435 17.532C69.9142 17.3347 70.1062 17.1773 70.3195 17.06C70.5355 16.9427 70.7835 16.884 71.0635 16.884C71.3009 16.884 71.5142 16.9293 71.7035 17.02C71.8955 17.1107 72.0582 17.2427 72.1915 17.416C72.3249 17.5867 72.4262 17.7947 72.4955 18.04C72.5675 18.2853 72.6035 18.5613 72.6035 18.868C72.6035 19.196 72.5635 19.4947 72.4835 19.764C72.4035 20.0333 72.2875 20.264 72.1355 20.456C71.9862 20.6453 71.8035 20.7933 71.5875 20.9C71.3715 21.004 71.1289 21.056 70.8595 21.056C70.5929 21.056 70.3675 21.0067 70.1835 20.908C70.0022 20.8067 69.8435 20.664 69.7075 20.48L69.6715 20.848C69.6502 20.9493 69.5889 21 69.4875 21H69.0275V15.108H69.7435V17.532ZM73.9068 15.108V21H73.1948V15.108H73.9068ZM77.4401 18.532C77.4401 18.3667 77.4161 18.216 77.3681 18.08C77.3227 17.9413 77.2547 17.8227 77.1641 17.724C77.0761 17.6227 76.9681 17.5453 76.8401 17.492C76.7121 17.436 76.5667 17.408 76.4041 17.408C76.0627 17.408 75.7921 17.508 75.5921 17.708C75.3947 17.9053 75.2721 18.18 75.2241 18.532H77.4401ZM78.0161 20.432C77.9281 20.5387 77.8227 20.632 77.7001 20.712C77.5774 20.7893 77.4454 20.8533 77.3041 20.904C77.1654 20.9547 77.0214 20.992 76.8721 21.016C76.7227 21.0427 76.5747 21.056 76.4281 21.056C76.1481 21.056 75.8894 21.0093 75.6521 20.916C75.4174 20.82 75.2134 20.6813 75.0401 20.5C74.8694 20.316 74.7361 20.0893 74.6401 19.82C74.5441 19.5507 74.4961 19.2413 74.4961 18.892C74.4961 18.6093 74.5387 18.3453 74.6241 18.1C74.7121 17.8547 74.8374 17.6427 75.0001 17.464C75.1627 17.2827 75.3614 17.1413 75.5961 17.04C75.8307 16.936 76.0947 16.884 76.3881 16.884C76.6307 16.884 76.8547 16.9253 77.0601 17.008C77.2681 17.088 77.4467 17.2053 77.5961 17.36C77.7481 17.512 77.8667 17.7013 77.9521 17.928C78.0374 18.152 78.0801 18.408 78.0801 18.696C78.0801 18.808 78.0681 18.8827 78.0441 18.92C78.0201 18.9573 77.9747 18.976 77.9081 18.976H75.2001C75.2081 19.232 75.2427 19.4547 75.3041 19.644C75.3681 19.8333 75.4561 19.992 75.5681 20.12C75.6801 20.2453 75.8134 20.34 75.9681 20.404C76.1227 20.4653 76.2961 20.496 76.4881 20.496C76.6667 20.496 76.8201 20.476 76.9481 20.436C77.0787 20.3933 77.1907 20.348 77.2841 20.3C77.3774 20.252 77.4547 20.208 77.5161 20.168C77.5801 20.1253 77.6347 20.104 77.6801 20.104C77.7387 20.104 77.7841 20.1267 77.8161 20.172L78.0161 20.432ZM83.0468 18.532C83.0468 18.3667 83.0228 18.216 82.9748 18.08C82.9295 17.9413 82.8615 17.8227 82.7708 17.724C82.6828 17.6227 82.5748 17.5453 82.4468 17.492C82.3188 17.436 82.1735 17.408 82.0108 17.408C81.6695 17.408 81.3988 17.508 81.1988 17.708C81.0015 17.9053 80.8788 18.18 80.8308 18.532H83.0468ZM83.6228 20.432C83.5348 20.5387 83.4295 20.632 83.3068 20.712C83.1842 20.7893 83.0522 20.8533 82.9108 20.904C82.7722 20.9547 82.6282 20.992 82.4788 21.016C82.3295 21.0427 82.1815 21.056 82.0348 21.056C81.7548 21.056 81.4962 21.0093 81.2588 20.916C81.0242 20.82 80.8202 20.6813 80.6468 20.5C80.4762 20.316 80.3428 20.0893 80.2468 19.82C80.1508 19.5507 80.1028 19.2413 80.1028 18.892C80.1028 18.6093 80.1455 18.3453 80.2308 18.1C80.3188 17.8547 80.4442 17.6427 80.6068 17.464C80.7695 17.2827 80.9682 17.1413 81.2028 17.04C81.4375 16.936 81.7015 16.884 81.9948 16.884C82.2375 16.884 82.4615 16.9253 82.6668 17.008C82.8748 17.088 83.0535 17.2053 83.2028 17.36C83.3548 17.512 83.4735 17.7013 83.5588 17.928C83.6442 18.152 83.6868 18.408 83.6868 18.696C83.6868 18.808 83.6748 18.8827 83.6508 18.92C83.6268 18.9573 83.5815 18.976 83.5148 18.976H80.8068C80.8148 19.232 80.8495 19.4547 80.9108 19.644C80.9748 19.8333 81.0628 19.992 81.1748 20.12C81.2868 20.2453 81.4202 20.34 81.5748 20.404C81.7295 20.4653 81.9028 20.496 82.0948 20.496C82.2735 20.496 82.4268 20.476 82.5548 20.436C82.6855 20.3933 82.7975 20.348 82.8908 20.3C82.9842 20.252 83.0615 20.208 83.1228 20.168C83.1868 20.1253 83.2415 20.104 83.2868 20.104C83.3455 20.104 83.3908 20.1267 83.4228 20.172L83.6228 20.432ZM84.9001 17.536C84.9881 17.4373 85.0814 17.348 85.1801 17.268C85.2787 17.188 85.3827 17.12 85.4921 17.064C85.6041 17.0053 85.7214 16.9613 85.8441 16.932C85.9694 16.9 86.1041 16.884 86.2481 16.884C86.4694 16.884 86.6641 16.9213 86.8321 16.996C87.0027 17.068 87.1441 17.172 87.2561 17.308C87.3707 17.4413 87.4574 17.6027 87.5161 17.792C87.5747 17.9813 87.6041 18.1907 87.6041 18.42V21H86.8881V18.42C86.8881 18.1133 86.8174 17.876 86.6761 17.708C86.5374 17.5373 86.3254 17.452 86.0401 17.452C85.8294 17.452 85.6321 17.5027 85.4481 17.604C85.2667 17.7053 85.0987 17.8427 84.9441 18.016V21H84.2281V16.948H84.6561C84.7574 16.948 84.8201 16.9973 84.8441 17.096L84.9001 17.536Z" fill="white"/>
<g clip-path="url(#clip0_72908_260)">
<path d="M32.6215 35.9668C35.6508 34.2761 37.9475 32.988 38.1455 32.888C38.7785 32.5456 39.4326 31.6398 38.1455 30.9362C37.7299 30.715 35.4923 29.4668 32.6215 27.8574L28.642 31.9421L32.6213 35.9668H32.6215Z" fill="#FFD900"/>
<path d="M28.6419 31.942L15.9702 44.922C16.2674 44.9621 16.6032 44.8819 16.9993 44.6607C17.8305 44.1984 26.6415 39.3078 32.6217 35.9676L28.6419 31.942Z" fill="#F43249"/>
<path d="M28.6419 31.9421L32.6212 27.8772C32.6212 27.8772 17.8906 19.7069 16.9991 19.2247C16.6637 19.022 16.2873 18.9621 15.9507 19.022L28.6419 31.9418V31.9421Z" fill="#00EE76"/>
<path d="M28.6419 31.942L15.9504 19.0222C15.4353 19.1432 15 19.6057 15 20.5512V43.3924C15 44.2583 15.3369 44.8819 15.9699 44.9418L28.6417 31.9418L28.6419 31.942Z" fill="#00D3FF"/>
<path d="M69.3146 30.7082C67.0378 30.7082 65.1566 32.4989 65.1566 34.9541C65.1566 37.3893 67.0181 39.2001 69.3148 39.2001C71.6113 39.2001 73.4725 37.4094 73.4725 34.9541C73.4725 32.4989 71.6113 30.7082 69.3146 30.7082ZM69.3146 37.5105C68.0669 37.5105 66.9786 36.4436 66.9786 34.9352C66.9786 33.4058 68.0678 32.3599 69.3146 32.3599C70.5614 32.3599 71.6506 33.4058 71.6506 34.9352C71.6506 36.4436 70.5614 37.5105 69.3146 37.5105ZM60.2661 30.7082C57.9694 30.7082 56.108 32.4989 56.108 34.9541C56.108 37.3893 57.9694 39.2001 60.2661 39.2001C62.5627 39.2001 64.4241 37.4094 64.4241 34.9541C64.4241 32.4989 62.5627 30.7082 60.2659 30.7082H60.2661ZM60.2661 37.5105C59.0183 37.5105 57.9301 36.4436 57.9301 34.9352C57.9301 33.4058 59.0193 32.3599 60.2661 32.3599C61.5138 32.3599 62.6021 33.4058 62.6021 34.9352C62.6021 36.4436 61.5324 37.5105 60.2661 37.5105ZM49.5147 32.0164V33.8071H53.7119C53.5927 34.8131 53.2571 35.5576 52.7617 36.0611C52.1482 36.6847 51.1977 37.3693 49.5147 37.3693C46.9206 37.3693 44.9215 35.2364 44.9215 32.6C44.9215 29.9637 46.9216 27.7905 49.5147 27.7905C50.92 27.7905 51.9305 28.3541 52.6828 29.0788L53.9296 27.8105C52.8799 26.7846 51.4746 26 49.5147 26C45.9701 26 43 28.9576 43 32.5599C43 36.1625 45.9701 39.1201 49.5147 39.1201C51.4351 39.1201 52.8612 38.4765 54.0094 37.2684C55.1775 36.0812 55.5339 34.4106 55.5339 33.0625C55.5339 32.6401 55.4947 32.2576 55.4346 31.9355L49.5147 32.0164ZM93.51 33.4047C93.1731 32.4588 92.1045 30.7082 89.9654 30.7082C87.8264 30.7082 86.0645 32.4189 86.0645 34.9541C86.0645 37.3283 87.8264 39.2001 90.1635 39.2001C92.0642 39.2001 93.1534 38.0129 93.6084 37.3283L92.2031 36.3625C91.7275 37.0672 91.0942 37.5295 90.1635 37.5295C89.2328 37.5295 88.5798 37.1071 88.1633 36.2414L93.6873 33.8873L93.51 33.4047ZM87.8865 34.8341C87.8473 33.2035 89.1344 32.3588 90.0443 32.3588C90.777 32.3588 91.3711 32.721 91.5885 33.2646L87.8865 34.8341ZM83.3919 38.9187H85.2138V26.4823H83.3919V38.9187ZM80.4226 31.6541H80.3634C79.9478 31.1506 79.1758 30.7082 78.1851 30.7082C76.106 30.7082 74.225 32.58 74.225 34.9541C74.225 37.3283 76.1257 39.1802 78.1851 39.1802C79.1747 39.1802 79.947 38.7376 80.3634 38.2141H80.4226V38.8178C80.4226 40.4483 79.5706 41.3129 78.2048 41.3129C77.0959 41.3129 76.4025 40.4882 76.1257 39.8036L74.5422 40.4882C74.9971 41.6152 76.2055 43.0036 78.2048 43.0036C80.3428 43.0036 82.1451 41.7155 82.1451 38.5966V30.9695H80.4226V31.6541ZM78.3435 37.5105C77.0959 37.5105 76.047 36.4436 76.047 34.9552C76.047 33.4668 77.0967 32.3797 78.3435 32.3797C79.5717 32.3797 80.5614 33.4668 80.5614 34.9552C80.5605 36.4236 79.5706 37.5105 78.3435 37.5105ZM102.004 26.4825H97.6482V38.9187H99.4702V34.2094H102.004C104.024 34.2094 106.004 32.7199 106.004 30.346C106.004 27.9718 104.024 26.4823 102.004 26.4823V26.4825ZM102.063 32.4799H99.4888V28.2129H102.063C103.409 28.2129 104.201 29.3599 104.201 30.3457C104.182 31.3117 103.41 32.4799 102.063 32.4799ZM113.271 30.6882C111.964 30.6882 110.597 31.2718 110.043 32.6L111.647 33.2846C112.004 32.6 112.637 32.3788 113.311 32.3788C114.261 32.3788 115.212 32.9623 115.231 33.9882V34.1094C114.894 33.9082 114.202 33.6259 113.331 33.6259C111.588 33.6259 109.825 34.6119 109.825 36.4236C109.825 38.094 111.252 39.1602 112.835 39.1602C114.063 39.1602 114.736 38.5966 115.152 37.9329H115.211V38.8989H116.972V34.1292C116.953 31.9362 115.349 30.6879 113.271 30.6879V30.6882ZM113.053 37.4905C112.459 37.4905 111.627 37.1882 111.627 36.4445C111.627 35.4785 112.656 35.1163 113.547 35.1163C114.339 35.1163 114.715 35.2974 115.211 35.5387C115.072 36.6858 114.102 37.4905 113.053 37.4905ZM123.329 30.9706L121.25 36.3434H121.19L119.033 30.9704H117.073L120.32 38.4963L118.478 42.7024H120.379L125.348 30.9704H123.328L123.329 30.9706ZM107.014 38.9187H108.836V26.4823H107.014V38.9187Z" fill="white"/>
</g>
<defs>
<clipPath id="clip0_72908_260">
<rect width="111" height="26" fill="white" transform="translate(15 19)"/>
</clipPath>
</defs>
</svg>
