<svg width="1440" height="163" viewBox="0 0 1440 163" fill="none" xmlns="http://www.w3.org/2000/svg">
<path fill-rule="evenodd" clip-rule="evenodd" d="M0 44.2208L14 40.6214C28 37.0221 56 29.8233 85 55.5331C113 81.2429 141 140.89 169 151.688C198 163 226 125.978 254 107.467C282 88.9558 311 88.9558 339 96.1546C367 103.868 395 118.265 424 111.066C452 103.868 480 74.0442 508 77.6435C536 81.2429 565 118.265 593 136.776C621 155.287 649 155.287 678 144.489C706 133.177 734 111.066 762 118.265C791 125.978 819 163 847 163C875 163 904 125.978 932 96.1546C960 66.8454 988 44.2208 1016 44.2208C1045 44.2208 1073 66.8454 1101 88.9558C1129 111.066 1158 111.066 1186 111.066C1214 111.066 1242 111.066 1271 92.5552C1299 74.0442 1327 59.1325 1355 81.2429C1384 103.868 1396.99 136.776 1440 144.489V96.1546V0H1426C1412 0 1384 0 1355 0C1327 0 1299 0 1271 0C1242 0 1214 0 1186 0C1158 0 1129 0 1101 0C1073 0 1045 0 1016 0C988 0 960 0 932 0C904 0 875 0 847 0C819 0 791 0 762 0C734 0 706 0 678 0C649 0 621 0 593 0C565 0 536 0 508 0C480 0 452 0 424 0C395 0 367 0 339 0C311 0 282 0 254 0C226 0 198 0 169 0C141 0 113 0 85 0C56 0 28 0 14 0H0V44.2208Z" fill="#5070D1"/>
</svg>
